<?xml version="1.0" encoding="UTF-8"?>
<svg width="1200pt" height="1200pt" version="1.1" viewBox="0 0 1200 1200" xmlns="http://www.w3.org/2000/svg">
 <defs>
  <clipPath id="a">
   <path d="m222.14 222.14h755.71v755.71h-755.71z"/>
  </clipPath>
 </defs>
 <path d="m1200 600c0 214.36-114.36 412.44-300 519.62-185.64 107.18-414.36 107.18-600 0-185.64-107.18-300-305.26-300-519.62s114.36-412.44 300-519.62c185.64-107.18 414.36-107.18 600 0 185.64 107.18 300 305.26 300 519.62" fill="#faebd6"/>
 <g clip-path="url(#a)">
  <path d="m545.9 886.2s15.137 18.832-3.7773 42.684c-18.914 23.852-36.215 13.195-40.898 39.273-1.1016 6.1602 5.2539 8.5078 9.2578 9.3086-92.363 0.21875-169.62 0.39453-181.29 0.39453-19.133 0-31.816-6.6484-31.203-24.734 13.438-64.145 78.648-64.145 78.648-64.145l80.559-182.03-64.215-189.83s-70.336-4.4883-74.008-4.4375c-109.12 1.5312-96.367-123.32-96.367-123.32l105.45-15.938 33.344-38.527 76.238-21.531 36.125-76.508s11.918-31.961 27.348-1.707c18.008 35.609 49.961 101.08 73.824 162.3 35.074 90.004 128.51 121.03 204.74 210.04 18.395 21.477 38.359 41.656 57.645 61.418-10.828 29.125-3.6641 76.355 21.332 138.84 8.707 21.773 16.559 51.117 4.4648 67.305-6.0977 8.1602-16.82 12.297-27 14.262-12.324-129.17-121.26-137.3-150.8-166.18-31.324-30.629-33.977-53.707-33.977-53.707s-9.2109-51.418-27.516-81.77c-10.723-17.789-73.281-68.492-73.281-68.492l-0.97656 51.949s-32.988 6.7695-43.211 21.742c-7.8828 11.547-11.395 20.32-23.27 25.988-4.4492 2.125-18.938 4.9336-18.938 4.9336s-2.9023 17.297 4.2188 29.707c11.395 19.852 22.051 21.832 43.492 31.875 0 0 20.176 12.551 21.441 43.93 1.7578 44.059-31.539 84.105 12.602 156.91zm381.2-333.66c-20.531-25.859-40.289-21-35.98-3.4453 9.2812 37.801 9.8711 67.5 5.8125 90.699 4.5117 1.2383 9.1055 2.9688 13.762 5.2227 10.227 4.9648 14.457 17.238 9.4688 27.41-4.9883 10.172-17.312 14.391-27.539 9.418-3.5898-1.7383-6.7109-2.7422-9.168-3.1523-2.6367-0.44531-4.5039-0.21094-5.3047 0.52734-1.7695 1.6328-3.7266 5.9922-4.4648 13.82-1.5039 16.09 2.1367 46.906 23.199 99.535 18.379 45.91 18.078 81.965-0.91406 107.15-16.172 21.453-41.777 28.785-60.852 31.121-9.5508 35.27-48.969 45.176-71.039 45.176h-157.86c0.16016 0.16016-13.934-0.75-12.324-9.6875 2.9258-16.293 16.801-21.418 34.023-21.492 17.207-0.074219 22.035 0.24219 33.387 0.44531 5.6992 0.10547-54.844-15.168-50.043-61.078 12.824-91.254 111.1-53.707 111.1-53.707-96.891-47.656-117.19 30.59-117.19 30.59-0.14453 0.37109-22.703 95.41-22.703 95.41s-4.2461 17.723-19.301 20.859c107.14-0.21875 221.39-0.45312 273.1-0.45312 117.47 0 133.8-132.64 90.117-188.36 87.109-93.926 47.129-177.55 0.70703-236.01z" fill="#5b361c"/>
 </g>
</svg>
